<?xml version="1.0" standalone="no"?>
<!DOCTYPE svg PUBLIC "-//W3C//DTD SVG 20010904//EN"
 "http://www.w3.org/TR/2001/REC-SVG-20010904/DTD/svg10.dtd">
<svg version="1.0" xmlns="http://www.w3.org/2000/svg"
 width="677.000000pt" height="545.000000pt" viewBox="0 0 677.000000 545.000000"
 preserveAspectRatio="xMidYMid meet">
<metadata>
Created by potrace 1.16, written by Peter Selinger 2001-2019
</metadata>
<g transform="translate(0.000000,545.000000) scale(0.100000,-0.100000)"
fill="#000000" stroke="none">
<path d="M0 2730 l0 -2710 3385 0 3385 0 0 2710 0 2710 -3385 0 -3385 0 0
-2710z m4668 578 l2 -1288 -640 0 -640 0 0 30 0 30 610 0 610 0 0 1225 0 1225
-1225 0 -1225 0 0 -610 0 -610 -30 0 -30 0 0 645 0 645 1283 -2 1282 -3 3
-1287z m-768 517 l0 -125 -40 0 -40 0 0 69 c0 109 15 101 -196 101 l-184 0 0
-610 0 -610 -140 0 -140 0 0 45 0 45 85 0 85 0 0 565 0 565 -185 0 -185 0 -2
-162 -3 -163 -40 0 -40 0 -3 203 -2 202 515 0 515 0 0 -125z m1737 -2177 c13
-12 23 -27 23 -35 0 -20 -28 -16 -40 6 -15 28 -47 35 -75 17 -22 -14 -25 -24
-25 -76 l0 -59 38 -3 c25 -2 37 -8 37 -18 0 -10 -12 -16 -37 -18 l-38 -3 0
-164 0 -164 38 -3 c25 -2 37 -8 37 -18 0 -12 -13 -15 -55 -15 -68 0 -68 -1
-69 208 l-1 157 -31 0 c-24 0 -30 4 -27 18 2 10 14 18 31 20 23 3 27 8 27 35
0 51 19 105 43 122 32 23 96 19 124 -7z m-3349 -260 l2 -268 36 0 c28 0 35 -3
32 -17 -3 -15 -14 -18 -58 -18 -55 0 -55 0 -58 32 l-3 33 -39 -31 c-69 -56
-174 -52 -240 7 -53 48 -74 107 -67 185 15 168 190 245 313 137 l34 -30 0 122
c0 120 0 121 23 118 l22 -3 3 -267z m-1378 138 l0 -45 43 -3 c29 -2 42 -8 42
-18 0 -10 -13 -16 -42 -18 l-43 -3 0 -154 c0 -170 6 -189 58 -179 27 5 62 -10
51 -21 -4 -3 -29 -8 -56 -12 -43 -5 -54 -2 -72 16 -20 20 -21 31 -21 186 l0
165 -35 0 c-28 0 -35 4 -35 20 0 16 7 20 35 20 34 0 35 1 35 38 0 41 6 52 27
52 9 0 13 -14 13 -44z m404 -56 c18 -11 46 -39 62 -61 24 -35 29 -54 32 -113
3 -60 0 -78 -21 -116 -13 -25 -43 -58 -66 -75 -37 -26 -52 -30 -106 -30 -54 0
-69 4 -107 30 -140 99 -118 323 39 381 49 18 124 11 167 -16z m433 20 c17 -6
35 -21 42 -33 6 -13 12 -84 13 -172 l3 -150 30 -5 c18 -3 30 -11 30 -20 0 -11
-12 -15 -50 -15 l-50 0 -5 173 c-5 159 -7 175 -25 189 -28 21 -87 11 -144 -24
l-46 -29 0 -134 0 -135 30 -5 c18 -3 30 -11 30 -20 0 -11 -12 -15 -50 -15
l-50 0 -3 183 -2 182 -35 0 c-24 0 -35 5 -35 15 0 12 13 15 55 15 47 0 55 -3
55 -18 0 -30 7 -30 66 0 61 30 93 34 141 18z m891 -6 c117 -49 165 -184 106
-302 -63 -126 -223 -147 -318 -42 -97 107 -62 282 69 341 49 23 94 24 143 3z
m496 -13 c19 -20 21 -35 26 -179 l5 -157 30 -5 c18 -3 30 -11 30 -20 0 -11
-12 -15 -50 -15 l-50 0 -5 173 c-5 157 -7 175 -24 188 -27 19 -63 17 -116 -7
-80 -36 -80 -36 -80 -185 l0 -133 33 -3 c20 -2 32 -8 32 -18 0 -11 -12 -15
-50 -15 l-50 0 -3 183 -2 182 -35 0 c-24 0 -35 5 -35 15 0 12 13 15 55 15 48
0 55 -2 55 -20 0 -23 17 -26 45 -6 60 41 151 44 189 7z m398 -1 c22 -16 33
-19 41 -11 21 21 27 10 27 -54 0 -77 -18 -87 -40 -23 -28 79 -122 112 -189 66
-64 -43 -76 -70 -76 -163 0 -93 13 -120 75 -162 63 -44 156 -22 196 46 20 34
32 39 40 17 8 -20 -22 -62 -61 -86 -96 -59 -223 -22 -275 81 -38 73 -22 198
33 258 57 62 167 77 229 31z m425 15 c21 -9 46 -23 57 -33 26 -23 66 -111 66
-144 l0 -28 -170 0 -170 0 0 -27 c0 -49 40 -106 93 -132 45 -22 52 -23 104
-12 59 14 79 8 49 -14 -51 -38 -155 -25 -221 27 -65 51 -87 185 -45 268 45 88
152 130 237 95z m368 -5 c26 -13 42 -17 49 -10 20 20 26 9 26 -45 0 -63 -21
-76 -38 -25 -33 93 -192 86 -192 -9 0 -46 21 -61 109 -80 107 -23 141 -53 141
-126 0 -96 -149 -150 -239 -86 l-30 22 -11 -21 c-18 -34 -30 -12 -30 56 0 76
18 86 43 24 21 -55 68 -82 130 -77 63 5 97 36 97 89 0 47 -19 61 -120 84 -54
12 -82 24 -102 44 -67 67 -6 179 97 180 17 0 48 -9 70 -20z m386 10 c68 -19
73 -33 79 -214 l5 -161 33 -3 c20 -2 32 -9 32 -18 0 -10 -14 -14 -55 -14 -52
0 -55 1 -55 25 l0 26 -42 -25 c-107 -63 -211 -29 -225 72 -7 55 18 99 70 123
50 22 88 24 150 5 l47 -14 0 60 c0 32 -4 68 -10 78 -19 36 -110 49 -174 24
-10 -4 -16 -1 -16 8 0 30 96 46 161 28z m457 -11 c2 -13 -9 -17 -50 -22 -108
-13 -138 -62 -138 -224 l0 -113 40 0 c34 0 40 -3 40 -20 0 -19 -5 -21 -57 -18
l-58 3 -3 182 -2 182 -38 3 c-25 2 -37 8 -37 18 0 12 13 15 55 15 53 0 55 -1
58 -27 3 -26 22 -41 22 -18 0 14 45 41 83 51 47 11 81 6 85 -12z m792 2 c0
-14 -10 -20 -45 -24 -114 -16 -135 -50 -135 -217 l0 -120 41 0 c33 0 40 -3 37
-17 -2 -14 -15 -19 -57 -21 -37 -2 -57 1 -62 10 -5 7 -9 91 -9 186 l0 172 -36
0 c-28 0 -35 3 -32 18 3 14 14 17 58 17 53 0 55 -1 58 -29 l4 -28 23 22 c27
25 88 49 128 50 20 0 27 -5 27 -19z"/>
<path d="M2030 1459 c-67 -27 -104 -96 -98 -184 3 -50 10 -70 32 -100 114
-149 320 -22 271 167 -25 98 -118 151 -205 117z"/>
<path d="M1155 1456 c-42 -18 -83 -69 -91 -112 -26 -139 48 -252 159 -241 60
5 95 30 125 87 42 83 19 203 -49 253 -34 25 -105 31 -144 13z"/>
<path d="M2520 1459 c-66 -26 -103 -90 -104 -174 0 -101 54 -173 138 -182 59
-7 109 17 143 68 24 37 28 52 28 114 0 61 -4 78 -27 112 -41 63 -113 88 -178
62z"/>
<path d="M3811 1454 c-37 -19 -78 -75 -83 -114 l-3 -25 149 -3 c87 -1 154 2
159 7 14 14 -31 100 -65 124 -37 27 -114 32 -157 11z"/>
<path d="M4558 1261 c-27 -24 -33 -36 -33 -71 0 -34 6 -47 30 -67 24 -21 36
-24 72 -20 24 2 61 16 83 31 38 25 40 29 40 75 0 48 -1 49 -40 65 -64 25 -114
21 -152 -13z"/>
</g>
</svg>
